<?xml version="1.0" encoding="UTF-8"?>
<!DOCTYPE svg PUBLIC "-//W3C//DTD SVG 1.1//EN" "http://www.w3.org/Graphics/SVG/1.1/DTD/svg11.dtd">
<svg version="1.1" xmlns="http://www.w3.org/2000/svg" xmlns:xlink="http://www.w3.org/1999/xlink" x="0" y="0" width="2048" height="512" viewBox="0, 0, 2048, 512">
  <defs>
    <clipPath id="Clip_1">
      <path d="M632.764,192.053 L702.245,192.053 L702.245,298.814 L632.764,298.814 z M667.299,200.053 Q653.999,200.053 646.381,206.849 Q638.764,213.646 638.764,225.541 Q638.764,234.799 643.393,240.277 Q648.022,245.756 661.088,250.736 L669.585,253.959 Q674.038,255.658 676.381,258.617 Q678.725,261.576 678.725,265.502 Q678.725,270.717 675.21,273.617 Q671.694,276.517 665.307,276.517 Q658.979,276.517 652.504,274.115 Q646.03,271.713 639.116,266.791 L639.116,284.662 Q645.21,287.709 651.743,289.262 Q658.276,290.814 664.78,290.814 Q680.6,290.814 688.422,284.281 Q696.245,277.748 696.245,264.506 Q696.245,254.779 691.264,248.392 Q686.284,242.006 675.737,238.139 L668.295,235.326 Q660.561,232.455 658.129,230.082 Q655.698,227.709 655.698,224.076 Q655.698,219.389 659.038,216.869 Q662.378,214.349 668.647,214.349 Q674.272,214.349 680.014,216.4 Q685.756,218.451 691.323,222.377 L691.323,205.502 Q685.405,202.807 679.37,201.43 Q673.335,200.053 667.299,200.053 z"/>
    </clipPath>
    <filter id="Shadow_2">
      <feGaussianBlur in="SourceAlpha" stdDeviation="2.5"/>
      <feOffset dx="0" dy="2" result="offsetblur"/>
      <feFlood flood-color="#000000"/>
      <feComposite in2="offsetblur" operator="in"/>
    </filter>
    <clipPath id="Clip_3">
      <path d="M701.241,213.908 L771.424,213.908 L771.424,322.076 L701.241,322.076 z M736.362,235.971 Q741.928,235.971 745.092,241.361 Q748.256,246.752 748.256,256.244 Q748.256,265.736 745.092,271.127 Q741.928,276.517 736.362,276.517 Q730.795,276.517 727.573,271.127 Q724.35,265.736 724.35,256.244 Q724.35,246.752 727.573,241.361 Q730.795,235.971 736.362,235.971 z M741.753,221.908 Q735.835,221.908 731.44,224.779 Q727.045,227.65 724.35,233.334 L724.35,223.49 L707.241,223.49 L707.241,314.076 L724.35,314.076 L724.35,279.857 Q727.514,285.365 731.704,288.09 Q735.893,290.814 741.167,290.814 Q752.827,290.814 759.126,281.908 Q765.424,273.002 765.424,256.361 Q765.424,239.955 759.213,230.932 Q753.003,221.908 741.753,221.908 z"/>
    </clipPath>
    <filter id="Shadow_4">
      <feGaussianBlur in="SourceAlpha" stdDeviation="2.5"/>
      <feOffset dx="0" dy="2" result="offsetblur"/>
      <feFlood flood-color="#000000"/>
      <feComposite in2="offsetblur" operator="in"/>
    </filter>
    <clipPath id="Clip_5">
      <path d="M765.206,213.908 L836.62,213.908 L836.62,298.814 L765.206,298.814 z M813.569,258.295 L813.569,259.467 Q813.569,268.666 809.819,273.793 Q806.069,278.92 799.272,278.92 Q794.76,278.92 792.124,276.283 Q789.487,273.646 789.487,269.193 Q789.487,263.217 793.295,260.756 Q797.104,258.295 806.713,258.295 L813.569,258.295 z M801.674,221.908 Q795.112,221.908 789.253,223.021 Q783.393,224.135 777.709,226.478 L777.71,241.127 Q783.979,237.728 789.751,236.176 Q795.522,234.623 801.674,234.623 Q807.534,234.623 810.551,236.762 Q813.569,238.9 813.569,243.06 L813.569,245.932 L801.674,245.932 Q786.088,245.932 778.647,251.41 Q771.206,256.889 771.206,268.373 Q771.206,278.978 777.446,284.896 Q783.686,290.814 794.878,290.814 Q800.737,290.814 805.6,288.471 Q810.463,286.127 813.569,281.791 L813.569,289.115 L830.62,289.115 L830.62,251.674 Q830.62,234.916 824.145,228.412 Q817.67,221.908 801.674,221.908 z"/>
    </clipPath>
    <filter id="Shadow_6">
      <feGaussianBlur in="SourceAlpha" stdDeviation="2.5"/>
      <feOffset dx="0" dy="2" result="offsetblur"/>
      <feFlood flood-color="#000000"/>
      <feComposite in2="offsetblur" operator="in"/>
    </filter>
    <clipPath id="Clip_7">
      <path d="M836.788,213.791 L901.112,213.791 L901.112,298.814 L836.788,298.814 z M875.19,221.791 Q860.014,221.791 851.401,230.961 Q842.788,240.131 842.788,256.361 Q842.788,272.533 851.342,281.674 Q859.897,290.814 875.073,290.814 Q880.815,290.814 885.795,289.555 Q890.776,288.295 895.112,285.775 L895.112,270.014 Q891.245,273.412 886.909,275.082 Q882.573,276.752 877.592,276.752 Q869.213,276.752 864.702,271.478 Q860.19,266.205 860.19,256.361 Q860.19,246.517 864.702,241.185 Q869.213,235.853 877.592,235.853 Q882.397,235.853 886.879,237.582 Q891.362,239.31 895.112,242.533 L895.112,226.83 Q890.249,224.252 885.356,223.021 Q880.463,221.791 875.19,221.791 z"/>
    </clipPath>
    <filter id="Shadow_8">
      <feGaussianBlur in="SourceAlpha" stdDeviation="2.5"/>
      <feOffset dx="0" dy="2" result="offsetblur"/>
      <feFlood flood-color="#000000"/>
      <feComposite in2="offsetblur" operator="in"/>
    </filter>
    <clipPath id="Clip_9">
      <path d="M899.581,213.908 L973.514,213.908 L973.514,298.814 L899.581,298.814 z M936.811,235.209 Q943.374,235.209 946.743,238.695 Q950.112,242.182 950.229,248.978 L923.217,249.037 Q923.862,242.416 927.378,238.812 Q930.893,235.209 936.811,235.209 z M936.811,221.908 Q922.338,221.908 913.96,231.224 Q905.581,240.541 905.581,256.596 Q905.581,273.178 914.282,281.996 Q922.983,290.814 939.448,290.814 Q946.362,290.814 952.573,289.584 Q958.784,288.353 964.76,285.892 L964.76,270.131 Q958.491,273.822 952.749,275.521 Q947.006,277.221 941.088,277.221 Q932.124,277.221 927.612,273.412 Q923.1,269.603 923.042,261.869 L967.514,261.869 L967.514,254.896 Q967.514,239.193 959.458,230.551 Q951.401,221.908 936.811,221.908 z"/>
    </clipPath>
    <filter id="Shadow_10">
      <feGaussianBlur in="SourceAlpha" stdDeviation="2.5"/>
      <feOffset dx="0" dy="2" result="offsetblur"/>
      <feFlood flood-color="#000000"/>
      <feComposite in2="offsetblur" operator="in"/>
    </filter>
    <clipPath id="Clip_11">
      <path d="M1037.589,192.053 L1104.022,192.053 L1104.022,298.814 L1037.589,298.814 z M1079.917,200.053 Q1062.221,200.053 1052.905,211.713 Q1043.589,223.373 1043.589,245.463 Q1043.589,267.494 1052.905,279.154 Q1062.221,290.814 1079.917,290.814 Q1084.897,290.814 1089.409,289.76 Q1093.921,288.705 1098.022,286.595 L1098.022,267.377 Q1093.569,271.478 1089.38,273.383 Q1085.19,275.287 1080.737,275.287 Q1071.245,275.287 1066.411,267.758 Q1061.577,260.228 1061.577,245.463 Q1061.577,230.639 1066.411,223.109 Q1071.245,215.58 1080.737,215.58 Q1085.19,215.58 1089.38,217.484 Q1093.569,219.389 1098.022,223.49 L1098.022,204.271 Q1094.038,202.162 1089.467,201.107 Q1084.897,200.053 1079.917,200.053 z"/>
    </clipPath>
    <filter id="Shadow_12">
      <feGaussianBlur in="SourceAlpha" stdDeviation="2.5"/>
      <feOffset dx="0" dy="2" result="offsetblur"/>
      <feFlood flood-color="#000000"/>
      <feComposite in2="offsetblur" operator="in"/>
    </filter>
    <clipPath id="Clip_13">
      <path d="M1101.671,213.908 L1174.432,213.908 L1174.432,298.814 L1101.671,298.814 z M1138.022,235.853 Q1144.233,235.853 1147.749,241.273 Q1151.264,246.693 1151.264,256.361 Q1151.264,266.029 1147.749,271.449 Q1144.233,276.869 1138.022,276.869 Q1131.87,276.869 1128.354,271.449 Q1124.839,266.029 1124.839,256.361 Q1124.839,246.693 1128.354,241.273 Q1131.87,235.853 1138.022,235.853 z M1138.022,221.908 Q1124.135,221.908 1115.903,231.195 Q1107.671,240.482 1107.671,256.361 Q1107.671,272.24 1115.903,281.527 Q1124.135,290.814 1138.022,290.814 Q1151.967,290.814 1160.2,281.527 Q1168.432,272.24 1168.432,256.361 Q1168.432,240.482 1160.2,231.195 Q1151.967,221.908 1138.022,221.908 z"/>
    </clipPath>
    <filter id="Shadow_14">
      <feGaussianBlur in="SourceAlpha" stdDeviation="2.5"/>
      <feOffset dx="0" dy="2" result="offsetblur"/>
      <feFlood flood-color="#000000"/>
      <feComposite in2="offsetblur" operator="in"/>
    </filter>
    <clipPath id="Clip_15">
      <path d="M1168.682,213.908 L1240.096,213.908 L1240.096,298.814 L1168.682,298.814 z M1217.045,258.295 L1217.046,259.467 Q1217.046,268.666 1213.296,273.793 Q1209.546,278.92 1202.749,278.92 Q1198.237,278.92 1195.6,276.283 Q1192.964,273.646 1192.964,269.193 Q1192.964,263.217 1196.772,260.756 Q1200.581,258.295 1210.19,258.295 L1217.045,258.295 z M1205.151,221.908 Q1198.589,221.908 1192.729,223.021 Q1186.87,224.135 1181.186,226.478 L1181.186,241.127 Q1187.456,237.728 1193.227,236.176 Q1198.999,234.623 1205.151,234.623 Q1211.01,234.623 1214.028,236.762 Q1217.046,238.9 1217.045,243.06 L1217.045,245.932 L1205.151,245.932 Q1189.565,245.932 1182.124,251.41 Q1174.682,256.889 1174.682,268.373 Q1174.682,278.978 1180.922,284.896 Q1187.163,290.814 1198.354,290.814 Q1204.214,290.814 1209.077,288.471 Q1213.94,286.127 1217.045,281.791 L1217.045,289.115 L1234.096,289.115 L1234.096,251.674 Q1234.096,234.916 1227.622,228.412 Q1221.147,221.908 1205.151,221.908 z"/>
    </clipPath>
    <filter id="Shadow_16">
      <feGaussianBlur in="SourceAlpha" stdDeviation="2.5"/>
      <feOffset dx="0" dy="2" result="offsetblur"/>
      <feFlood flood-color="#000000"/>
      <feComposite in2="offsetblur" operator="in"/>
    </filter>
    <clipPath id="Clip_17">
      <path d="M1240.499,213.908 L1304.94,213.908 L1304.94,298.814 L1240.499,298.814 z M1272.631,221.908 Q1260.21,221.908 1253.354,227.182 Q1246.499,232.455 1246.499,241.947 Q1246.499,249.916 1251.01,254.662 Q1255.522,259.408 1265.366,261.635 L1270.112,262.689 Q1278.374,264.682 1280.571,266.439 Q1282.768,268.197 1282.768,271.478 Q1282.768,274.818 1279.663,276.576 Q1276.557,278.334 1270.522,278.334 Q1265.014,278.334 1259.126,276.635 Q1253.237,274.935 1247.553,271.713 L1247.553,286.713 Q1253.94,288.764 1260.151,289.789 Q1266.362,290.814 1272.28,290.814 Q1285.639,290.814 1292.29,285.746 Q1298.94,280.678 1298.94,270.541 Q1298.94,262.103 1294.575,257.152 Q1290.21,252.201 1280.834,249.974 L1275.913,248.803 L1275.268,248.627 Q1262.729,245.697 1262.729,241.01 Q1262.729,237.728 1265.659,236.058 Q1268.589,234.389 1274.331,234.389 Q1279.487,234.389 1284.614,235.941 Q1289.741,237.494 1294.487,240.541 L1294.487,225.541 Q1289.272,223.724 1283.735,222.816 Q1278.198,221.908 1272.631,221.908 z"/>
    </clipPath>
    <filter id="Shadow_18">
      <feGaussianBlur in="SourceAlpha" stdDeviation="2.5"/>
      <feOffset dx="0" dy="2" result="offsetblur"/>
      <feFlood flood-color="#000000"/>
      <feComposite in2="offsetblur" operator="in"/>
    </filter>
    <clipPath id="Clip_19">
      <path d="M1304.17,196.857 L1372.538,196.857 L1372.538,297.115 L1304.17,297.115 z M1344.096,204.857 L1326.928,204.857 L1326.928,223.49 L1310.17,223.49 L1310.17,236.674 L1326.928,236.674 L1326.928,266.908 Q1326.928,279.682 1332.143,284.398 Q1337.358,289.115 1352.124,289.115 L1366.538,289.115 L1366.538,275.931 L1353.354,275.932 Q1348.374,275.932 1346.235,274.027 Q1344.096,272.123 1344.096,267.728 L1344.096,236.674 L1366.538,236.674 L1366.538,223.49 L1344.096,223.49 L1344.096,204.857 z"/>
    </clipPath>
    <filter id="Shadow_20">
      <feGaussianBlur in="SourceAlpha" stdDeviation="2.5"/>
      <feOffset dx="0" dy="2" result="offsetblur"/>
      <feFlood flood-color="#000000"/>
      <feComposite in2="offsetblur" operator="in"/>
    </filter>
    <clipPath id="Clip_21">
      <path d="M1437.432,193.635 L1511.131,193.635 L1511.131,297.115 L1437.432,297.115 z M1505.131,201.635 L1443.432,201.635 L1443.432,216.752 L1465.639,216.752 L1465.639,289.115 L1482.924,289.115 L1482.924,216.752 L1505.131,216.752 L1505.131,201.635 z"/>
    </clipPath>
    <filter id="Shadow_22">
      <feGaussianBlur in="SourceAlpha" stdDeviation="2.5"/>
      <feOffset dx="0" dy="2" result="offsetblur"/>
      <feFlood flood-color="#000000"/>
      <feComposite in2="offsetblur" operator="in"/>
    </filter>
    <clipPath id="Clip_23">
      <path d="M1504.796,213.908 L1578.729,213.908 L1578.729,298.814 L1504.796,298.814 z M1542.026,235.209 Q1548.589,235.209 1551.958,238.695 Q1555.327,242.182 1555.444,248.978 L1528.432,249.037 Q1529.077,242.416 1532.592,238.812 Q1536.108,235.209 1542.026,235.209 z M1542.026,221.908 Q1527.553,221.908 1519.174,231.224 Q1510.796,240.541 1510.796,256.596 Q1510.796,273.178 1519.497,281.996 Q1528.198,290.814 1544.663,290.814 Q1551.577,290.814 1557.788,289.584 Q1563.999,288.353 1569.975,285.892 L1569.975,270.131 Q1563.706,273.822 1557.964,275.521 Q1552.221,277.221 1546.303,277.221 Q1537.339,277.221 1532.827,273.412 Q1528.315,269.603 1528.256,261.869 L1572.729,261.869 L1572.729,254.896 Q1572.729,239.193 1564.672,230.551 Q1556.616,221.908 1542.026,221.908 z"/>
    </clipPath>
    <filter id="Shadow_24">
      <feGaussianBlur in="SourceAlpha" stdDeviation="2.5"/>
      <feOffset dx="0" dy="2" result="offsetblur"/>
      <feFlood flood-color="#000000"/>
      <feComposite in2="offsetblur" operator="in"/>
    </filter>
    <clipPath id="Clip_25">
      <path d="M1576.495,213.791 L1640.819,213.791 L1640.819,298.814 L1576.495,298.814 z M1614.897,221.791 Q1599.721,221.791 1591.108,230.961 Q1582.495,240.131 1582.495,256.361 Q1582.495,272.533 1591.049,281.674 Q1599.604,290.814 1614.78,290.814 Q1620.522,290.814 1625.503,289.555 Q1630.483,288.295 1634.819,285.775 L1634.819,270.014 Q1630.952,273.412 1626.616,275.082 Q1622.28,276.752 1617.299,276.752 Q1608.921,276.752 1604.409,271.478 Q1599.897,266.205 1599.897,256.361 Q1599.897,246.517 1604.409,241.185 Q1608.921,235.853 1617.299,235.853 Q1622.104,235.853 1626.587,237.582 Q1631.069,239.31 1634.819,242.533 L1634.819,226.83 Q1629.956,224.252 1625.063,223.021 Q1620.171,221.791 1614.897,221.791 z"/>
    </clipPath>
    <filter id="Shadow_26">
      <feGaussianBlur in="SourceAlpha" stdDeviation="2.5"/>
      <feOffset dx="0" dy="2" result="offsetblur"/>
      <feFlood flood-color="#000000"/>
      <feComposite in2="offsetblur" operator="in"/>
    </filter>
    <clipPath id="Clip_27">
      <path d="M1643.975,189.943 L1708.651,189.943 L1708.651,297.115 L1643.975,297.115 z M1667.026,197.943 L1649.975,197.943 L1649.975,289.115 L1667.026,289.115 L1667.026,251.557 Q1667.026,244.232 1669.663,240.101 Q1672.299,235.971 1676.987,235.971 Q1681.557,235.971 1683.579,239.017 Q1685.6,242.064 1685.6,249.154 L1685.6,289.115 L1702.651,289.115 L1702.651,246.517 Q1702.651,234.271 1697.905,228.09 Q1693.159,221.908 1683.842,221.908 Q1677.631,221.908 1673.237,224.896 Q1668.842,227.885 1667.026,233.334 L1667.026,197.943 z"/>
    </clipPath>
    <filter id="Shadow_28">
      <feGaussianBlur in="SourceAlpha" stdDeviation="2.5"/>
      <feOffset dx="0" dy="2" result="offsetblur"/>
      <feFlood flood-color="#000000"/>
      <feComposite in2="offsetblur" operator="in"/>
    </filter>
    <clipPath id="Clip_29">
      <path d="M1777.296,192.053 L1843.729,192.053 L1843.729,298.814 L1777.296,298.814 z M1819.624,200.053 Q1801.928,200.053 1792.612,211.713 Q1783.296,223.373 1783.296,245.463 Q1783.296,267.494 1792.612,279.154 Q1801.928,290.814 1819.624,290.814 Q1824.604,290.814 1829.116,289.76 Q1833.628,288.705 1837.729,286.595 L1837.729,267.377 Q1833.276,271.478 1829.087,273.383 Q1824.897,275.287 1820.444,275.287 Q1810.952,275.287 1806.118,267.758 Q1801.284,260.228 1801.284,245.463 Q1801.284,230.639 1806.118,223.109 Q1810.952,215.58 1820.444,215.58 Q1824.897,215.58 1829.087,217.484 Q1833.276,219.389 1837.729,223.49 L1837.729,204.271 Q1833.745,202.162 1829.174,201.107 Q1824.604,200.053 1819.624,200.053 z"/>
    </clipPath>
    <filter id="Shadow_30">
      <feGaussianBlur in="SourceAlpha" stdDeviation="2.5"/>
      <feOffset dx="0" dy="2" result="offsetblur"/>
      <feFlood flood-color="#000000"/>
      <feComposite in2="offsetblur" operator="in"/>
    </filter>
    <clipPath id="Clip_31">
      <path d="M1840.909,189.943 L1911.737,189.943 L1911.737,297.115 L1840.909,297.115 z M1881.479,197.943 L1846.909,197.943 L1846.909,211.127 L1864.311,211.127 L1864.311,261.752 Q1864.311,276.459 1869.643,282.787 Q1874.975,289.115 1887.221,289.115 L1905.737,289.115 L1905.737,275.931 L1892.026,275.932 Q1886.284,275.932 1883.881,272.709 Q1881.479,269.486 1881.479,261.752 L1881.479,197.943 z"/>
    </clipPath>
    <filter id="Shadow_32">
      <feGaussianBlur in="SourceAlpha" stdDeviation="2.5"/>
      <feOffset dx="0" dy="2" result="offsetblur"/>
      <feFlood flood-color="#000000"/>
      <feComposite in2="offsetblur" operator="in"/>
    </filter>
    <clipPath id="Clip_33">
      <path d="M1912.256,215.49 L1977.049,215.49 L1977.049,298.814 L1912.256,298.814 z M1935.424,223.49 L1918.256,223.49 L1918.256,266.205 Q1918.256,278.392 1923.032,284.603 Q1927.807,290.814 1937.182,290.814 Q1943.335,290.814 1947.7,287.826 Q1952.065,284.838 1953.881,279.388 L1953.881,289.115 L1971.049,289.115 L1971.049,223.49 L1953.881,223.49 L1953.881,261.166 Q1953.881,268.549 1951.274,272.65 Q1948.667,276.752 1944.038,276.752 Q1939.409,276.752 1937.417,273.705 Q1935.424,270.658 1935.424,263.568 L1935.424,223.49 z"/>
    </clipPath>
    <filter id="Shadow_34">
      <feGaussianBlur in="SourceAlpha" stdDeviation="2.5"/>
      <feOffset dx="0" dy="2" result="offsetblur"/>
      <feFlood flood-color="#000000"/>
      <feComposite in2="offsetblur" operator="in"/>
    </filter>
    <clipPath id="Clip_35">
      <path d="M1978.917,189.943 L2049.1,189.943 L2049.1,298.814 L1978.917,298.814 z M2014.038,236.205 Q2019.604,236.205 2022.768,241.596 Q2025.932,246.986 2025.932,256.478 Q2025.932,265.971 2022.768,271.361 Q2019.604,276.752 2014.038,276.752 Q2008.471,276.752 2005.249,271.361 Q2002.026,265.971 2002.026,256.478 Q2002.026,246.986 2005.249,241.596 Q2008.471,236.205 2014.038,236.205 z M2002.026,197.943 L1984.917,197.943 L1984.917,289.115 L2002.026,289.115 L2002.026,279.389 Q2004.721,285.072 2009.116,287.943 Q2013.51,290.814 2019.428,290.814 Q2030.678,290.814 2036.889,281.791 Q2043.1,272.767 2043.1,256.361 Q2043.1,239.721 2036.801,230.814 Q2030.503,221.908 2018.842,221.908 Q2013.569,221.908 2009.38,224.633 Q2005.19,227.357 2002.026,232.807 L2002.026,197.943 z"/>
    </clipPath>
    <filter id="Shadow_36">
      <feGaussianBlur in="SourceAlpha" stdDeviation="2.5"/>
      <feOffset dx="0" dy="2" result="offsetblur"/>
      <feFlood flood-color="#000000"/>
      <feComposite in2="offsetblur" operator="in"/>
    </filter>
  </defs>
  <g id="Logo">
    <path d="M217.893,493.214 C186.793,490.514 151.493,480.114 125.393,465.814 C55.193,427.614 8.693,357.814 0.793,278.814 C-0.807,262.614 0.093,233.314 2.793,217.814 C9.393,179.114 23.993,145.014 47.493,113.314 C57.393,99.914 81.293,76.014 94.893,65.914 C144.393,29.114 204.793,12.714 265.093,19.814 C317.993,26.014 367.593,50.014 405.393,87.814 C465.693,147.914 488.993,233.414 467.793,316.014 C464.093,330.414 459.193,343.714 451.993,358.814 C417.593,430.714 348.793,480.714 269.393,491.814 C256.093,493.714 230.893,494.414 217.893,493.214 z" fill="#010101"/>
    <path d="M223.393,469.613 C193.693,467.113 169.393,460.513 144.393,448.314 C81.893,417.814 39.193,361.013 26.593,291.814 C23.393,274.214 23.393,238.313 26.693,220.413 C30.793,197.413 37.693,177.013 47.893,157.613 C59.193,136.113 70.993,120.313 88.993,102.713 C122.893,69.713 164.393,49.813 211.893,43.813 C227.993,41.713 256.693,42.213 271.893,44.813 C306.193,50.513 338.393,64.413 366.393,85.313 C404.593,114.013 433.293,157.113 444.893,203.313 C461.293,268.714 446.593,337.113 404.893,389.314 C397.093,399.113 380.393,415.814 370.893,423.414 C330.393,455.814 272.993,473.814 223.393,469.613 z M132.393,387.613 C138.293,385.613 143.893,381.914 148.093,377.613 C150.093,375.513 170.693,343.914 193.793,307.314 C216.993,270.714 236.293,240.714 236.693,240.613 C237.093,240.413 256.493,269.913 279.893,306.113 C303.193,342.214 324.593,374.214 327.293,377.113 C334.593,384.914 342.993,388.714 353.793,389.214 C372.793,390.013 388.993,380.613 396.793,364.314 C398.993,359.613 399.393,357.513 399.393,349.314 C399.393,341.214 398.993,339.013 396.793,334.314 C392.393,325.013 271.093,138.214 266.093,133.013 C260.493,127.213 251.693,122.713 243.093,121.113 C230.693,118.813 215.793,123.713 206.793,133.013 C201.093,138.913 81.593,327.113 78.093,335.613 C73.893,345.914 75.293,359.613 81.393,369.214 C87.293,378.613 100.493,387.314 111.893,389.214 C118.293,390.314 126.693,389.613 132.393,387.613 z" fill="#FE4A01"/>
    <path d="M112.093,365.014 C103.693,361.814 98.193,354.314 99.193,347.214 C99.893,342.114 220.793,151.314 225.693,147.514 C232.993,141.914 245.493,143.914 251.193,151.514 C259.393,162.514 375.393,343.414 376.193,346.414 C379.593,360.214 357.293,372.214 345.893,362.714 C344.293,361.314 319.493,323.914 290.793,279.514 C262.093,235.114 238.093,198.214 237.493,197.514 C236.593,196.614 224.493,215.014 184.393,278.414 C149.993,332.614 131.293,361.414 129.093,363.114 C125.193,366.114 117.293,367.014 112.093,365.014 z" fill="#FE4A01"/>
    <path d="M223.393,469.613 C193.693,467.113 169.393,460.513 144.393,448.314 C81.893,417.814 39.193,361.013 26.593,291.814 C23.393,274.214 23.393,238.313 26.693,220.413 C30.793,197.413 37.693,177.013 47.893,157.613 C59.193,136.113 70.993,120.313 88.993,102.713 C122.893,69.713 164.393,49.813 211.893,43.813 C227.993,41.713 256.693,42.213 271.893,44.813 C306.193,50.513 338.393,64.413 366.393,85.313 C404.593,114.013 433.293,157.113 444.893,203.313 C461.293,268.714 446.593,337.113 404.893,389.314 C397.093,399.113 380.393,415.814 370.893,423.414 C330.393,455.814 272.993,473.814 223.393,469.613 z M132.393,387.613 C138.293,385.613 143.893,381.914 148.093,377.613 C150.093,375.513 170.693,343.914 193.793,307.314 C216.993,270.714 236.293,240.714 236.693,240.613 C237.093,240.413 256.493,269.913 279.893,306.113 C303.193,342.214 324.593,374.214 327.293,377.113 C334.593,384.914 342.993,388.714 353.793,389.214 C372.793,390.013 388.993,380.613 396.793,364.314 C398.993,359.613 399.393,357.513 399.393,349.314 C399.393,341.214 398.993,339.013 396.793,334.314 C392.393,325.013 271.093,138.214 266.093,133.013 C260.493,127.213 251.693,122.713 243.093,121.113 C230.693,118.813 215.793,123.713 206.793,133.013 C201.093,138.913 81.593,327.113 78.093,335.613 C73.893,345.914 75.293,359.613 81.393,369.214 C87.293,378.613 100.493,387.314 111.893,389.214 C118.293,390.314 126.693,389.613 132.393,387.613 z M234.593,369.914 C235.193,369.314 217.593,342.714 214.793,340.113 C208.993,334.613 199.493,338.214 198.293,346.314 C197.893,349.314 198.593,351.113 204.293,359.814 C209.993,368.613 211.193,369.914 214.093,370.314 C217.493,370.814 233.993,370.513 234.593,369.914 z M264.493,368.613 C265.293,367.613 268.393,362.714 271.493,357.613 C276.093,350.013 276.993,347.914 276.393,345.613 C274.893,339.314 267.893,335.814 261.893,338.314 C258.993,339.513 257.593,341.414 243.893,363.314 L239.193,370.814 L251.193,370.613 C261.293,370.414 263.393,370.113 264.493,368.613 z" fill="#FE9E01"/>
    <path d="M112.093,365.014 C103.693,361.814 98.193,354.314 99.193,347.214 C99.893,342.114 220.793,151.314 225.693,147.514 C232.993,141.914 245.493,143.914 251.193,151.514 C259.393,162.514 375.393,343.414 376.193,346.414 C379.593,360.214 357.293,372.214 345.893,362.714 C344.293,361.314 319.493,323.914 290.793,279.514 C262.093,235.114 238.093,198.214 237.493,197.514 C236.593,196.614 224.493,215.014 184.393,278.414 C149.993,332.614 131.293,361.414 129.093,363.114 C125.193,366.114 117.293,367.014 112.093,365.014 z" fill="#FE9E01"/>
    <path d="M223.393,469.613 C193.693,467.113 169.393,460.513 144.393,448.314 C81.893,417.814 39.193,361.013 26.593,291.814 C23.393,274.214 23.393,238.313 26.693,220.413 C30.793,197.413 37.693,177.013 47.893,157.613 C59.193,136.113 70.993,120.313 88.993,102.713 C122.893,69.713 164.393,49.813 211.893,43.813 C227.993,41.713 256.693,42.213 271.893,44.813 C306.193,50.513 338.393,64.413 366.393,85.313 C404.593,114.013 433.293,157.113 444.893,203.313 C461.293,268.714 446.593,337.113 404.893,389.314 C397.093,399.113 380.393,415.814 370.893,423.414 C330.393,455.814 272.993,473.814 223.393,469.613 z M132.393,387.613 C138.293,385.613 143.893,381.914 148.093,377.613 C150.093,375.513 170.693,343.914 193.793,307.314 C216.993,270.714 236.293,240.714 236.693,240.613 C237.093,240.413 256.493,269.913 279.893,306.113 C303.193,342.214 324.593,374.214 327.293,377.113 C334.593,384.914 342.993,388.714 353.793,389.214 C372.793,390.013 388.993,380.613 396.793,364.314 C398.993,359.613 399.393,357.513 399.393,349.314 C399.393,341.214 398.993,339.013 396.793,334.314 C392.393,325.013 271.093,138.214 266.093,133.013 C260.493,127.213 251.693,122.713 243.093,121.113 C230.693,118.813 215.793,123.713 206.793,133.013 C201.093,138.913 81.593,327.113 78.093,335.613 C73.893,345.914 75.293,359.613 81.393,369.214 C87.293,378.613 100.493,387.314 111.893,389.214 C118.293,390.314 126.693,389.613 132.393,387.613 z M254.493,384.613 C274.093,354.013 276.993,348.714 276.493,345.914 C275.693,341.814 272.293,338.513 268.193,337.714 C261.793,336.513 259.693,338.414 249.793,354.214 C244.693,362.214 239.893,369.613 238.993,370.613 C237.593,372.314 237.493,372.314 235.893,370.613 C234.993,369.613 230.193,362.613 225.393,355.013 C220.493,347.414 215.393,340.314 214.093,339.214 C208.093,334.513 198.593,339.214 198.493,346.914 C198.393,350.214 200.093,353.513 209.893,368.513 L221.393,386.314 L237.393,386.314 C251.593,386.314 253.493,386.113 254.493,384.613 z" fill="#FED201"/>
    <path d="M112.093,365.014 C103.693,361.814 98.193,354.314 99.193,347.214 C99.893,342.114 220.793,151.314 225.693,147.514 C232.993,141.914 245.493,143.914 251.193,151.514 C259.393,162.514 375.393,343.414 376.193,346.414 C379.593,360.214 357.293,372.214 345.893,362.714 C344.293,361.314 319.493,323.914 290.793,279.514 C262.093,235.114 238.093,198.214 237.493,197.514 C236.593,196.614 224.493,215.014 184.393,278.414 C149.993,332.614 131.293,361.414 129.093,363.114 C125.193,366.114 117.293,367.014 112.093,365.014 z" fill="#FED201"/>
    <path d="M223.393,469.613 C193.693,467.113 169.393,460.513 144.393,448.314 C81.893,417.814 39.193,361.013 26.593,291.814 C23.393,274.214 23.393,238.313 26.693,220.413 C30.793,197.413 37.693,177.013 47.893,157.613 C59.193,136.113 70.993,120.313 88.993,102.713 C122.893,69.713 164.393,49.813 211.893,43.813 C227.993,41.713 256.693,42.213 271.893,44.813 C306.193,50.513 338.393,64.413 366.393,85.313 C404.593,114.013 433.293,157.113 444.893,203.313 C461.293,268.714 446.593,337.113 404.893,389.314 C397.093,399.113 380.393,415.814 370.893,423.414 C330.393,455.814 272.993,473.814 223.393,469.613 z M244.293,399.113 C246.993,396.414 271.493,358.814 275.793,350.513 C278.393,345.714 274.293,338.814 268.193,337.714 C261.793,336.513 259.693,338.414 249.793,354.214 C244.693,362.214 239.893,369.613 238.993,370.613 C237.593,372.314 237.493,372.314 235.893,370.613 C234.993,369.613 230.193,362.613 225.393,355.013 C220.493,347.414 215.393,340.314 214.093,339.214 C208.493,334.814 199.393,338.914 198.293,346.314 C197.793,349.513 199.193,351.914 212.893,373.314 C221.193,386.214 229.393,398.013 230.993,399.613 C235.193,403.513 239.893,403.314 244.293,399.113 z M132.393,387.613 C138.293,385.613 143.893,381.914 148.093,377.613 C150.093,375.513 170.693,343.914 193.793,307.314 C216.993,270.714 236.293,240.714 236.693,240.613 C237.093,240.413 256.493,269.913 279.893,306.113 C303.193,342.214 324.593,374.214 327.293,377.113 C334.593,384.914 342.993,388.714 353.793,389.214 C372.793,390.013 388.993,380.613 396.793,364.314 C398.993,359.613 399.393,357.513 399.393,349.314 C399.393,341.214 398.993,339.013 396.793,334.314 C392.393,325.013 271.093,138.214 266.093,133.013 C260.493,127.213 251.693,122.713 243.093,121.113 C230.693,118.813 215.793,123.713 206.793,133.013 C201.093,138.913 81.593,327.113 78.093,335.613 C73.893,345.914 75.293,359.613 81.393,369.214 C87.293,378.613 100.493,387.314 111.893,389.214 C118.293,390.314 126.693,389.613 132.393,387.613 z" fill="#FFFFFF"/>
    <path d="M112.093,365.014 C103.693,361.814 98.193,354.314 99.193,347.214 C99.893,342.114 220.793,151.314 225.693,147.514 C232.993,141.914 245.493,143.914 251.193,151.514 C259.393,162.514 375.393,343.414 376.193,346.414 C379.593,360.214 357.293,372.214 345.893,362.714 C344.293,361.314 319.493,323.914 290.793,279.514 C262.093,235.114 238.093,198.214 237.493,197.514 C236.593,196.614 224.493,215.014 184.393,278.414 C149.993,332.614 131.293,361.414 129.093,363.114 C125.193,366.114 117.293,367.014 112.093,365.014 z" fill="#FFFFFF"/>
    <text transform="matrix(1, 0, 0, 1, 578, 263)"/>
  </g>
  <g id="Text">
    <g>
      <path d="M667.299,200.053 Q673.335,200.053 679.37,201.43 Q685.405,202.807 691.323,205.502 L691.323,222.377 Q685.756,218.451 680.014,216.4 Q674.272,214.349 668.647,214.349 Q662.378,214.349 659.038,216.869 Q655.698,219.389 655.698,224.076 Q655.698,227.709 658.129,230.082 Q660.561,232.455 668.295,235.326 L675.737,238.139 Q686.284,242.006 691.264,248.392 Q696.245,254.779 696.245,264.506 Q696.245,277.748 688.422,284.281 Q680.6,290.814 664.78,290.814 Q658.276,290.814 651.743,289.262 Q645.21,287.709 639.116,284.662 L639.116,266.791 Q646.03,271.713 652.504,274.115 Q658.979,276.517 665.307,276.517 Q671.694,276.517 675.21,273.617 Q678.725,270.717 678.725,265.502 Q678.725,261.576 676.381,258.617 Q674.038,255.658 669.585,253.959 L661.088,250.736 Q648.022,245.756 643.393,240.277 Q638.764,234.799 638.764,225.541 Q638.764,213.646 646.381,206.849 Q653.999,200.053 667.299,200.053 z" clip-path="url(#Clip_1)" filter="url(#Shadow_2)" fill="rgba(0,0,0,0.75)"/>
      <path d="M661.088,250.736 Q648.022,245.756 643.393,240.277 Q638.764,234.799 638.764,225.541 Q638.764,213.646 646.381,206.849 Q653.999,200.053 667.299,200.053 Q673.335,200.053 679.37,201.43 Q685.405,202.807 691.323,205.502 L691.323,222.377 Q685.756,218.451 680.014,216.4 Q674.272,214.349 668.647,214.349 Q662.378,214.349 659.038,216.869 Q655.698,219.389 655.698,224.076 Q655.698,227.709 658.129,230.082 Q660.561,232.455 668.295,235.326 L675.737,238.139 Q686.284,242.006 691.264,248.392 Q696.245,254.779 696.245,264.506 Q696.245,277.748 688.422,284.281 Q680.6,290.814 664.78,290.814 Q658.276,290.814 651.743,289.262 Q645.21,287.709 639.116,284.662 L639.116,266.791 Q646.03,271.713 652.504,274.115 Q658.979,276.517 665.307,276.517 Q671.694,276.517 675.21,273.617 Q678.725,270.717 678.725,265.502 Q678.725,261.576 676.381,258.617 Q674.038,255.658 669.585,253.959 z" fill="#FFFFFF"/>
    </g>
    <g>
      <path d="M741.753,221.908 Q753.003,221.908 759.213,230.932 Q765.424,239.955 765.424,256.361 Q765.424,273.002 759.126,281.908 Q752.827,290.814 741.167,290.814 Q735.893,290.814 731.704,288.09 Q727.514,285.365 724.35,279.857 L724.35,314.076 L707.241,314.076 L707.241,223.49 L724.35,223.49 L724.35,233.334 Q727.045,227.65 731.44,224.779 Q735.835,221.908 741.753,221.908 z M736.362,235.971 Q730.795,235.971 727.573,241.361 Q724.35,246.752 724.35,256.244 Q724.35,265.736 727.573,271.127 Q730.795,276.517 736.362,276.517 Q741.928,276.517 745.092,271.127 Q748.256,265.736 748.256,256.244 Q748.256,246.752 745.092,241.361 Q741.928,235.971 736.362,235.971 z" clip-path="url(#Clip_3)" filter="url(#Shadow_4)" fill="rgba(0,0,0,0.75)"/>
      <path d="M724.35,279.857 L724.35,314.076 L707.241,314.076 L707.241,223.49 L724.35,223.49 L724.35,233.334 Q727.045,227.65 731.44,224.779 Q735.835,221.908 741.753,221.908 Q753.003,221.908 759.213,230.932 Q765.424,239.955 765.424,256.361 Q765.424,273.002 759.126,281.908 Q752.827,290.814 741.167,290.814 Q735.893,290.814 731.704,288.09 Q727.514,285.365 724.35,279.857 z M748.256,256.244 Q748.256,246.752 745.092,241.361 Q741.928,235.971 736.362,235.971 Q730.795,235.971 727.573,241.361 Q724.35,246.752 724.35,256.244 Q724.35,265.736 727.573,271.127 Q730.795,276.517 736.362,276.517 Q741.928,276.517 745.092,271.127 Q748.256,265.736 748.256,256.244 z" fill="#FFFFFF"/>
    </g>
    <g>
      <path d="M801.674,221.908 Q817.67,221.908 824.145,228.412 Q830.62,234.916 830.62,251.674 L830.62,289.115 L813.569,289.115 L813.569,281.791 Q810.463,286.127 805.6,288.471 Q800.737,290.814 794.878,290.814 Q783.686,290.814 777.446,284.896 Q771.206,278.978 771.206,268.373 Q771.206,256.889 778.647,251.41 Q786.088,245.932 801.674,245.932 L813.569,245.932 L813.569,243.06 Q813.569,238.9 810.551,236.762 Q807.534,234.623 801.674,234.623 Q795.522,234.623 789.751,236.176 Q783.979,237.728 777.71,241.127 L777.709,226.478 Q783.393,224.135 789.253,223.021 Q795.112,221.908 801.674,221.908 z M813.569,258.295 L806.713,258.295 Q797.104,258.295 793.295,260.756 Q789.487,263.217 789.487,269.193 Q789.487,273.646 792.124,276.283 Q794.76,278.92 799.272,278.92 Q806.069,278.92 809.819,273.793 Q813.569,268.666 813.569,259.467 L813.569,258.295 z" clip-path="url(#Clip_5)" filter="url(#Shadow_6)" fill="rgba(0,0,0,0.75)"/>
      <path d="M806.713,258.295 Q797.104,258.295 793.295,260.756 Q789.487,263.217 789.487,269.193 Q789.487,273.646 792.124,276.283 Q794.76,278.92 799.272,278.92 Q806.069,278.92 809.819,273.793 Q813.569,268.666 813.569,259.467 L813.569,258.295 z M830.62,251.674 L830.62,289.115 L813.569,289.115 L813.569,281.791 Q810.463,286.127 805.6,288.471 Q800.737,290.814 794.878,290.814 Q783.686,290.814 777.446,284.896 Q771.206,278.978 771.206,268.373 Q771.206,256.889 778.647,251.41 Q786.088,245.932 801.674,245.932 L813.569,245.932 L813.569,243.06 Q813.569,238.9 810.551,236.762 Q807.534,234.623 801.674,234.623 Q795.522,234.623 789.751,236.176 Q783.979,237.728 777.71,241.127 L777.71,226.478 Q783.393,224.135 789.253,223.021 Q795.112,221.908 801.674,221.908 Q817.67,221.908 824.145,228.412 Q830.62,234.916 830.62,251.674 z" fill="#FFFFFF"/>
    </g>
    <g>
      <path d="M875.19,221.791 Q880.463,221.791 885.356,223.021 Q890.249,224.252 895.112,226.83 L895.112,242.533 Q891.362,239.31 886.879,237.582 Q882.397,235.853 877.592,235.853 Q869.213,235.853 864.702,241.185 Q860.19,246.517 860.19,256.361 Q860.19,266.205 864.702,271.478 Q869.213,276.752 877.592,276.752 Q882.573,276.752 886.909,275.082 Q891.245,273.412 895.112,270.014 L895.112,285.775 Q890.776,288.295 885.795,289.555 Q880.815,290.814 875.073,290.814 Q859.897,290.814 851.342,281.674 Q842.788,272.533 842.788,256.361 Q842.788,240.131 851.401,230.961 Q860.014,221.791 875.19,221.791 z" clip-path="url(#Clip_7)" filter="url(#Shadow_8)" fill="rgba(0,0,0,0.75)"/>
      <path d="M895.112,285.775 Q890.776,288.295 885.795,289.555 Q880.815,290.814 875.073,290.814 Q859.897,290.814 851.342,281.674 Q842.788,272.533 842.788,256.361 Q842.788,240.131 851.401,230.961 Q860.014,221.791 875.19,221.791 Q880.463,221.791 885.356,223.021 Q890.249,224.252 895.112,226.83 L895.112,242.533 Q891.362,239.31 886.879,237.582 Q882.397,235.853 877.592,235.853 Q869.213,235.853 864.702,241.185 Q860.19,246.517 860.19,256.361 Q860.19,266.205 864.702,271.478 Q869.213,276.752 877.592,276.752 Q882.573,276.752 886.909,275.082 Q891.245,273.412 895.112,270.014 z" fill="#FFFFFF"/>
    </g>
    <g>
      <path d="M936.811,221.908 Q951.401,221.908 959.458,230.551 Q967.514,239.193 967.514,254.896 L967.514,261.869 L923.042,261.869 Q923.1,269.603 927.612,273.412 Q932.124,277.221 941.088,277.221 Q947.006,277.221 952.749,275.521 Q958.491,273.822 964.76,270.131 L964.76,285.892 Q958.784,288.353 952.573,289.584 Q946.362,290.814 939.448,290.814 Q922.983,290.814 914.282,281.996 Q905.581,273.178 905.581,256.596 Q905.581,240.541 913.96,231.224 Q922.338,221.908 936.811,221.908 z M936.811,235.209 Q930.893,235.209 927.378,238.812 Q923.862,242.416 923.217,249.037 L950.229,248.978 Q950.112,242.182 946.743,238.695 Q943.374,235.209 936.811,235.209 z" clip-path="url(#Clip_9)" filter="url(#Shadow_10)" fill="rgba(0,0,0,0.75)"/>
      <path d="M964.76,285.892 Q958.784,288.353 952.573,289.584 Q946.362,290.814 939.448,290.814 Q922.983,290.814 914.282,281.996 Q905.581,273.178 905.581,256.596 Q905.581,240.541 913.96,231.224 Q922.338,221.908 936.811,221.908 Q951.401,221.908 959.458,230.551 Q967.514,239.193 967.514,254.896 L967.514,261.869 L923.042,261.869 Q923.1,269.603 927.612,273.412 Q932.124,277.221 941.088,277.221 Q947.006,277.221 952.749,275.521 Q958.491,273.822 964.76,270.131 z M950.229,248.978 Q950.112,242.182 946.743,238.695 Q943.374,235.209 936.811,235.209 Q930.893,235.209 927.378,238.812 Q923.862,242.416 923.217,249.037 z" fill="#FFFFFF"/>
    </g>
    <g>
      <path d="M1079.917,200.053 Q1084.897,200.053 1089.467,201.107 Q1094.038,202.162 1098.022,204.271 L1098.022,223.49 Q1093.569,219.389 1089.38,217.484 Q1085.19,215.58 1080.737,215.58 Q1071.245,215.58 1066.411,223.109 Q1061.577,230.639 1061.577,245.463 Q1061.577,260.228 1066.411,267.758 Q1071.245,275.287 1080.737,275.287 Q1085.19,275.287 1089.38,273.383 Q1093.569,271.478 1098.022,267.377 L1098.022,286.595 Q1093.921,288.705 1089.409,289.76 Q1084.897,290.814 1079.917,290.814 Q1062.221,290.814 1052.905,279.154 Q1043.589,267.494 1043.589,245.463 Q1043.589,223.373 1052.905,211.713 Q1062.221,200.053 1079.917,200.053 z" clip-path="url(#Clip_11)" filter="url(#Shadow_12)" fill="rgba(0,0,0,0.75)"/>
      <path d="M1098.022,286.596 Q1093.921,288.705 1089.409,289.76 Q1084.897,290.814 1079.917,290.814 Q1062.221,290.814 1052.905,279.154 Q1043.589,267.494 1043.589,245.463 Q1043.589,223.373 1052.905,211.713 Q1062.221,200.053 1079.917,200.053 Q1084.897,200.053 1089.467,201.107 Q1094.038,202.162 1098.022,204.271 L1098.022,223.49 Q1093.569,219.389 1089.38,217.484 Q1085.19,215.58 1080.737,215.58 Q1071.245,215.58 1066.411,223.109 Q1061.577,230.639 1061.577,245.463 Q1061.577,260.228 1066.411,267.758 Q1071.245,275.287 1080.737,275.287 Q1085.19,275.287 1089.38,273.383 Q1093.569,271.478 1098.022,267.377 z" fill="#FFFFFF"/>
    </g>
    <g>
      <path d="M1138.022,221.908 Q1151.967,221.908 1160.2,231.195 Q1168.432,240.482 1168.432,256.361 Q1168.432,272.24 1160.2,281.527 Q1151.967,290.814 1138.022,290.814 Q1124.135,290.814 1115.903,281.527 Q1107.671,272.24 1107.671,256.361 Q1107.671,240.482 1115.903,231.195 Q1124.135,221.908 1138.022,221.908 z M1138.022,235.853 Q1131.87,235.853 1128.354,241.273 Q1124.839,246.693 1124.839,256.361 Q1124.839,266.029 1128.354,271.449 Q1131.87,276.869 1138.022,276.869 Q1144.233,276.869 1147.749,271.449 Q1151.264,266.029 1151.264,256.361 Q1151.264,246.693 1147.749,241.273 Q1144.233,235.853 1138.022,235.853 z" clip-path="url(#Clip_13)" filter="url(#Shadow_14)" fill="rgba(0,0,0,0.75)"/>
      <path d="M1138.022,235.853 Q1131.87,235.853 1128.354,241.273 Q1124.839,246.693 1124.839,256.361 Q1124.839,266.029 1128.354,271.449 Q1131.87,276.869 1138.022,276.869 Q1144.233,276.869 1147.749,271.449 Q1151.264,266.029 1151.264,256.361 Q1151.264,246.693 1147.749,241.273 Q1144.233,235.853 1138.022,235.853 z M1107.671,256.361 Q1107.671,240.482 1115.903,231.195 Q1124.135,221.908 1138.022,221.908 Q1151.967,221.908 1160.2,231.195 Q1168.432,240.482 1168.432,256.361 Q1168.432,272.24 1160.2,281.527 Q1151.967,290.814 1138.022,290.814 Q1124.135,290.814 1115.903,281.527 Q1107.671,272.24 1107.671,256.361 z" fill="#FFFFFF"/>
    </g>
    <g>
      <path d="M1205.151,221.908 Q1221.147,221.908 1227.622,228.412 Q1234.096,234.916 1234.096,251.674 L1234.096,289.115 L1217.045,289.115 L1217.045,281.791 Q1213.94,286.127 1209.077,288.471 Q1204.214,290.814 1198.354,290.814 Q1187.163,290.814 1180.922,284.896 Q1174.682,278.978 1174.682,268.373 Q1174.682,256.889 1182.124,251.41 Q1189.565,245.932 1205.151,245.932 L1217.045,245.932 L1217.045,243.06 Q1217.046,238.9 1214.028,236.762 Q1211.01,234.623 1205.151,234.623 Q1198.999,234.623 1193.227,236.176 Q1187.456,237.728 1181.186,241.127 L1181.186,226.478 Q1186.87,224.135 1192.729,223.021 Q1198.589,221.908 1205.151,221.908 z M1217.045,258.295 L1210.19,258.295 Q1200.581,258.295 1196.772,260.756 Q1192.964,263.217 1192.964,269.193 Q1192.964,273.646 1195.6,276.283 Q1198.237,278.92 1202.749,278.92 Q1209.546,278.92 1213.296,273.793 Q1217.046,268.666 1217.046,259.467 L1217.045,258.295 z" clip-path="url(#Clip_15)" filter="url(#Shadow_16)" fill="rgba(0,0,0,0.75)"/>
      <path d="M1210.19,258.295 Q1200.581,258.295 1196.772,260.756 Q1192.964,263.217 1192.964,269.193 Q1192.964,273.646 1195.6,276.283 Q1198.237,278.92 1202.749,278.92 Q1209.546,278.92 1213.296,273.793 Q1217.046,268.666 1217.046,259.467 L1217.046,258.295 z M1234.096,251.674 L1234.096,289.115 L1217.046,289.115 L1217.046,281.791 Q1213.94,286.127 1209.077,288.471 Q1204.214,290.814 1198.354,290.814 Q1187.163,290.814 1180.922,284.896 Q1174.682,278.978 1174.682,268.373 Q1174.682,256.889 1182.124,251.41 Q1189.565,245.932 1205.151,245.932 L1217.046,245.932 L1217.046,243.06 Q1217.046,238.9 1214.028,236.762 Q1211.01,234.623 1205.151,234.623 Q1198.999,234.623 1193.227,236.176 Q1187.456,237.728 1181.186,241.127 L1181.186,226.478 Q1186.87,224.135 1192.729,223.021 Q1198.589,221.908 1205.151,221.908 Q1221.147,221.908 1227.622,228.412 Q1234.096,234.916 1234.096,251.674 z" fill="#FFFFFF"/>
    </g>
    <g>
      <path d="M1272.631,221.908 Q1278.198,221.908 1283.735,222.816 Q1289.272,223.724 1294.487,225.541 L1294.487,240.541 Q1289.741,237.494 1284.614,235.941 Q1279.487,234.389 1274.331,234.389 Q1268.589,234.389 1265.659,236.058 Q1262.729,237.728 1262.729,241.01 Q1262.729,245.697 1275.268,248.627 L1275.913,248.803 L1280.834,249.974 Q1290.21,252.201 1294.575,257.152 Q1298.94,262.103 1298.94,270.541 Q1298.94,280.678 1292.29,285.746 Q1285.639,290.814 1272.28,290.814 Q1266.362,290.814 1260.151,289.789 Q1253.94,288.764 1247.553,286.713 L1247.553,271.713 Q1253.237,274.935 1259.126,276.635 Q1265.014,278.334 1270.522,278.334 Q1276.557,278.334 1279.663,276.576 Q1282.768,274.818 1282.768,271.478 Q1282.768,268.197 1280.571,266.439 Q1278.374,264.682 1270.112,262.689 L1265.366,261.635 Q1255.522,259.408 1251.01,254.662 Q1246.499,249.916 1246.499,241.947 Q1246.499,232.455 1253.354,227.182 Q1260.21,221.908 1272.631,221.908 z" clip-path="url(#Clip_17)" filter="url(#Shadow_18)" fill="rgba(0,0,0,0.75)"/>
      <path d="M1294.487,225.541 L1294.487,240.541 Q1289.741,237.494 1284.614,235.941 Q1279.487,234.389 1274.331,234.389 Q1268.589,234.389 1265.659,236.058 Q1262.729,237.728 1262.729,241.01 Q1262.729,245.697 1275.268,248.627 L1275.913,248.803 L1280.835,249.974 Q1290.21,252.201 1294.575,257.152 Q1298.94,262.103 1298.94,270.541 Q1298.94,280.678 1292.29,285.746 Q1285.639,290.814 1272.28,290.814 Q1266.362,290.814 1260.151,289.789 Q1253.94,288.764 1247.553,286.713 L1247.553,271.713 Q1253.237,274.935 1259.126,276.635 Q1265.014,278.334 1270.522,278.334 Q1276.557,278.334 1279.663,276.576 Q1282.768,274.818 1282.768,271.478 Q1282.768,268.197 1280.571,266.439 Q1278.374,264.682 1270.112,262.689 L1265.366,261.635 Q1255.522,259.408 1251.01,254.662 Q1246.499,249.916 1246.499,241.947 Q1246.499,232.455 1253.354,227.182 Q1260.21,221.908 1272.631,221.908 Q1278.198,221.908 1283.735,222.816 Q1289.272,223.724 1294.487,225.541 z" fill="#FFFFFF"/>
    </g>
    <g>
      <path d="M1344.096,204.857 L1344.096,223.49 L1366.538,223.49 L1366.538,236.674 L1344.096,236.674 L1344.096,267.728 Q1344.096,272.123 1346.235,274.027 Q1348.374,275.932 1353.354,275.932 L1366.538,275.931 L1366.538,289.115 L1352.124,289.115 Q1337.358,289.115 1332.143,284.398 Q1326.928,279.682 1326.928,266.908 L1326.928,236.674 L1310.17,236.674 L1310.17,223.49 L1326.928,223.49 L1326.928,204.857 L1344.096,204.857 z" clip-path="url(#Clip_19)" filter="url(#Shadow_20)" fill="rgba(0,0,0,0.75)"/>
      <path d="M1344.096,204.857 L1344.096,223.49 L1366.538,223.49 L1366.538,236.674 L1344.096,236.674 L1344.096,267.728 Q1344.096,272.123 1346.235,274.027 Q1348.374,275.932 1353.354,275.932 L1366.538,275.932 L1366.538,289.115 L1352.124,289.115 Q1337.358,289.115 1332.143,284.398 Q1326.928,279.682 1326.928,266.908 L1326.928,236.674 L1310.171,236.674 L1310.171,223.49 L1326.928,223.49 L1326.928,204.857 z" fill="#FFFFFF"/>
    </g>
    <g>
      <path d="M1505.131,201.635 L1505.131,216.752 L1482.924,216.752 L1482.924,289.115 L1465.639,289.115 L1465.639,216.752 L1443.432,216.752 L1443.432,201.635 L1505.131,201.635 z" clip-path="url(#Clip_21)" filter="url(#Shadow_22)" fill="rgba(0,0,0,0.75)"/>
      <path d="M1482.924,289.115 L1465.639,289.115 L1465.639,216.752 L1443.432,216.752 L1443.432,201.635 L1505.131,201.635 L1505.131,216.752 L1482.924,216.752 z" fill="#FFFFFF"/>
    </g>
    <g>
      <path d="M1542.026,221.908 Q1556.616,221.908 1564.672,230.551 Q1572.729,239.193 1572.729,254.896 L1572.729,261.869 L1528.256,261.869 Q1528.315,269.603 1532.827,273.412 Q1537.339,277.221 1546.303,277.221 Q1552.221,277.221 1557.964,275.521 Q1563.706,273.822 1569.975,270.131 L1569.975,285.892 Q1563.999,288.353 1557.788,289.584 Q1551.577,290.814 1544.663,290.814 Q1528.198,290.814 1519.497,281.996 Q1510.796,273.178 1510.796,256.596 Q1510.796,240.541 1519.174,231.224 Q1527.553,221.908 1542.026,221.908 z M1542.026,235.209 Q1536.108,235.209 1532.592,238.812 Q1529.077,242.416 1528.432,249.037 L1555.444,248.978 Q1555.327,242.182 1551.958,238.695 Q1548.589,235.209 1542.026,235.209 z" clip-path="url(#Clip_23)" filter="url(#Shadow_24)" fill="rgba(0,0,0,0.75)"/>
      <path d="M1569.975,285.892 Q1563.999,288.353 1557.788,289.584 Q1551.577,290.814 1544.663,290.814 Q1528.198,290.814 1519.497,281.996 Q1510.796,273.178 1510.796,256.596 Q1510.796,240.541 1519.174,231.224 Q1527.553,221.908 1542.026,221.908 Q1556.616,221.908 1564.672,230.551 Q1572.729,239.193 1572.729,254.896 L1572.729,261.869 L1528.256,261.869 Q1528.315,269.603 1532.827,273.412 Q1537.339,277.221 1546.303,277.221 Q1552.221,277.221 1557.964,275.521 Q1563.706,273.822 1569.975,270.131 z M1555.444,248.978 Q1555.327,242.182 1551.958,238.695 Q1548.589,235.209 1542.026,235.209 Q1536.108,235.209 1532.592,238.812 Q1529.077,242.416 1528.432,249.037 z" fill="#FFFFFF"/>
    </g>
    <g>
      <path d="M1614.897,221.791 Q1620.171,221.791 1625.063,223.021 Q1629.956,224.252 1634.819,226.83 L1634.819,242.533 Q1631.069,239.31 1626.587,237.582 Q1622.104,235.853 1617.299,235.853 Q1608.921,235.853 1604.409,241.185 Q1599.897,246.517 1599.897,256.361 Q1599.897,266.205 1604.409,271.478 Q1608.921,276.752 1617.299,276.752 Q1622.28,276.752 1626.616,275.082 Q1630.952,273.412 1634.819,270.014 L1634.819,285.775 Q1630.483,288.295 1625.503,289.555 Q1620.522,290.814 1614.78,290.814 Q1599.604,290.814 1591.049,281.674 Q1582.495,272.533 1582.495,256.361 Q1582.495,240.131 1591.108,230.961 Q1599.721,221.791 1614.897,221.791 z" clip-path="url(#Clip_25)" filter="url(#Shadow_26)" fill="rgba(0,0,0,0.75)"/>
      <path d="M1634.819,285.775 Q1630.483,288.295 1625.503,289.555 Q1620.522,290.814 1614.78,290.814 Q1599.604,290.814 1591.049,281.674 Q1582.495,272.533 1582.495,256.361 Q1582.495,240.131 1591.108,230.961 Q1599.721,221.791 1614.897,221.791 Q1620.171,221.791 1625.063,223.021 Q1629.956,224.252 1634.819,226.83 L1634.819,242.533 Q1631.069,239.31 1626.587,237.582 Q1622.104,235.853 1617.299,235.853 Q1608.921,235.853 1604.409,241.185 Q1599.897,246.517 1599.897,256.361 Q1599.897,266.205 1604.409,271.478 Q1608.921,276.752 1617.299,276.752 Q1622.28,276.752 1626.616,275.082 Q1630.952,273.412 1634.819,270.014 z" fill="#FFFFFF"/>
    </g>
    <g>
      <path d="M1667.026,197.943 L1667.026,233.334 Q1668.842,227.885 1673.237,224.896 Q1677.631,221.908 1683.842,221.908 Q1693.159,221.908 1697.905,228.09 Q1702.651,234.271 1702.651,246.517 L1702.651,289.115 L1685.6,289.115 L1685.6,249.154 Q1685.6,242.064 1683.579,239.017 Q1681.557,235.971 1676.987,235.971 Q1672.299,235.971 1669.663,240.101 Q1667.026,244.232 1667.026,251.557 L1667.026,289.115 L1649.975,289.115 L1649.975,197.943 L1667.026,197.943 z" clip-path="url(#Clip_27)" filter="url(#Shadow_28)" fill="rgba(0,0,0,0.75)"/>
      <path d="M1702.651,246.517 L1702.651,289.115 L1685.6,289.115 L1685.6,249.154 Q1685.6,242.064 1683.579,239.017 Q1681.557,235.971 1676.987,235.971 Q1672.299,235.971 1669.663,240.101 Q1667.026,244.232 1667.026,251.557 L1667.026,289.115 L1649.975,289.115 L1649.975,197.943 L1667.026,197.943 L1667.026,233.334 Q1668.842,227.885 1673.237,224.896 Q1677.631,221.908 1683.842,221.908 Q1693.159,221.908 1697.905,228.09 Q1702.651,234.271 1702.651,246.517 z" fill="#FFFFFF"/>
    </g>
    <g>
      <path d="M1819.624,200.053 Q1824.604,200.053 1829.174,201.107 Q1833.745,202.162 1837.729,204.271 L1837.729,223.49 Q1833.276,219.389 1829.087,217.484 Q1824.897,215.58 1820.444,215.58 Q1810.952,215.58 1806.118,223.109 Q1801.284,230.639 1801.284,245.463 Q1801.284,260.228 1806.118,267.758 Q1810.952,275.287 1820.444,275.287 Q1824.897,275.287 1829.087,273.383 Q1833.276,271.478 1837.729,267.377 L1837.729,286.595 Q1833.628,288.705 1829.116,289.76 Q1824.604,290.814 1819.624,290.814 Q1801.928,290.814 1792.612,279.154 Q1783.296,267.494 1783.296,245.463 Q1783.296,223.373 1792.612,211.713 Q1801.928,200.053 1819.624,200.053 z" clip-path="url(#Clip_29)" filter="url(#Shadow_30)" fill="rgba(0,0,0,0.75)"/>
      <path d="M1837.729,286.596 Q1833.628,288.705 1829.116,289.76 Q1824.604,290.814 1819.624,290.814 Q1801.928,290.814 1792.612,279.154 Q1783.296,267.494 1783.296,245.463 Q1783.296,223.373 1792.612,211.713 Q1801.928,200.053 1819.624,200.053 Q1824.604,200.053 1829.174,201.107 Q1833.745,202.162 1837.729,204.271 L1837.729,223.49 Q1833.276,219.389 1829.087,217.484 Q1824.897,215.58 1820.444,215.58 Q1810.952,215.58 1806.118,223.109 Q1801.284,230.639 1801.284,245.463 Q1801.284,260.228 1806.118,267.758 Q1810.952,275.287 1820.444,275.287 Q1824.897,275.287 1829.087,273.383 Q1833.276,271.478 1837.729,267.377 z" fill="#FFFFFF"/>
    </g>
    <g>
      <path d="M1881.479,197.943 L1881.479,261.752 Q1881.479,269.486 1883.881,272.709 Q1886.284,275.932 1892.026,275.932 L1905.737,275.931 L1905.737,289.115 L1887.221,289.115 Q1874.975,289.115 1869.643,282.787 Q1864.311,276.459 1864.311,261.752 L1864.311,211.127 L1846.909,211.127 L1846.909,197.943 L1881.479,197.943 z" clip-path="url(#Clip_31)" filter="url(#Shadow_32)" fill="rgba(0,0,0,0.75)"/>
      <path d="M1864.311,261.752 L1864.311,211.127 L1846.909,211.127 L1846.909,197.943 L1881.479,197.943 L1881.479,261.752 Q1881.479,269.486 1883.881,272.709 Q1886.284,275.932 1892.026,275.932 L1905.737,275.932 L1905.737,289.115 L1887.221,289.115 Q1874.975,289.115 1869.643,282.787 Q1864.311,276.459 1864.311,261.752 z" fill="#FFFFFF"/>
    </g>
    <g>
      <path d="M1935.424,223.49 L1935.424,263.568 Q1935.424,270.658 1937.417,273.705 Q1939.409,276.752 1944.038,276.752 Q1948.667,276.752 1951.274,272.65 Q1953.881,268.549 1953.881,261.166 L1953.881,223.49 L1971.049,223.49 L1971.049,289.115 L1953.881,289.115 L1953.881,279.388 Q1952.065,284.838 1947.7,287.826 Q1943.335,290.814 1937.182,290.814 Q1927.807,290.814 1923.032,284.603 Q1918.256,278.392 1918.256,266.205 L1918.256,223.49 L1935.424,223.49 z" clip-path="url(#Clip_33)" filter="url(#Shadow_34)" fill="rgba(0,0,0,0.75)"/>
      <path d="M1918.256,266.205 L1918.256,223.49 L1935.424,223.49 L1935.424,263.568 Q1935.424,270.658 1937.417,273.705 Q1939.409,276.752 1944.038,276.752 Q1948.667,276.752 1951.274,272.65 Q1953.881,268.549 1953.881,261.166 L1953.881,223.49 L1971.049,223.49 L1971.049,289.115 L1953.881,289.115 L1953.881,279.389 Q1952.065,284.838 1947.7,287.826 Q1943.335,290.814 1937.182,290.814 Q1927.807,290.814 1923.032,284.603 Q1918.256,278.392 1918.256,266.205 z" fill="#FFFFFF"/>
    </g>
    <g>
      <path d="M2002.026,197.943 L2002.026,232.807 Q2005.19,227.357 2009.38,224.633 Q2013.569,221.908 2018.842,221.908 Q2030.503,221.908 2036.801,230.814 Q2043.1,239.721 2043.1,256.361 Q2043.1,272.767 2036.889,281.791 Q2030.678,290.814 2019.428,290.814 Q2013.51,290.814 2009.116,287.943 Q2004.721,285.072 2002.026,279.389 L2002.026,289.115 L1984.917,289.115 L1984.917,197.943 L2002.026,197.943 z M2014.038,236.205 Q2008.471,236.205 2005.249,241.596 Q2002.026,246.986 2002.026,256.478 Q2002.026,265.971 2005.249,271.361 Q2008.471,276.752 2014.038,276.752 Q2019.604,276.752 2022.768,271.361 Q2025.932,265.971 2025.932,256.478 Q2025.932,246.986 2022.768,241.596 Q2019.604,236.205 2014.038,236.205 z" clip-path="url(#Clip_35)" filter="url(#Shadow_36)" fill="rgba(0,0,0,0.75)"/>
      <path d="M2025.932,256.478 Q2025.932,246.986 2022.768,241.596 Q2019.604,236.205 2014.038,236.205 Q2008.471,236.205 2005.249,241.596 Q2002.026,246.986 2002.026,256.478 Q2002.026,265.971 2005.249,271.361 Q2008.471,276.752 2014.038,276.752 Q2019.604,276.752 2022.768,271.361 Q2025.932,265.971 2025.932,256.478 z M2002.026,232.807 Q2005.19,227.357 2009.38,224.633 Q2013.569,221.908 2018.842,221.908 Q2030.503,221.908 2036.801,230.814 Q2043.1,239.721 2043.1,256.361 Q2043.1,272.767 2036.889,281.791 Q2030.678,290.814 2019.428,290.814 Q2013.51,290.814 2009.116,287.943 Q2004.721,285.072 2002.026,279.389 L2002.026,289.115 L1984.917,289.115 L1984.917,197.943 L2002.026,197.943 z" fill="#FFFFFF"/>
    </g>
  </g>
</svg>
