<?xml version="1.0" standalone="no"?>
<!DOCTYPE svg PUBLIC "-//W3C//DTD SVG 20010904//EN"
 "http://www.w3.org/TR/2001/REC-SVG-20010904/DTD/svg10.dtd">
<svg version="1.0" xmlns="http://www.w3.org/2000/svg"
 width="512.000000pt" height="512.000000pt" viewBox="0 0 512.000000 512.000000"
 preserveAspectRatio="xMidYMid meet">
<metadata>
Created by potrace 1.11, written by Peter Selinger 2001-2013
</metadata>
<g transform="translate(0.000000,512.000000) scale(0.100000,-0.100000)"
fill="#000000" stroke="none">
<path d="M2375 4920 c-338 -30 -678 -134 -961 -293 -551 -310 -953 -817 -1129
-1422 -32 -110 -60 -251 -76 -375 -16 -124 -16 -440 0 -560 100 -748 517
-1384 1154 -1762 353 -209 721 -314 1142 -325 405 -11 747 64 1110 242 573
280 998 768 1206 1382 142 419 157 895 44 1342 -233 922 -1023 1622 -1981
1756 -132 19 -382 26 -509 15z m462 -245 c367 -47 717 -190 1018 -415 382
-287 669 -718 785 -1180 164 -654 17 -1338 -400 -1860 -78 -98 -245 -265 -340
-341 -455 -365 -1059 -528 -1640 -443 -231 34 -412 90 -625 194 -623 303
-1055 877 -1177 1560 -26 147 -35 436 -19 581 58 497 256 919 595 1268 186
190 345 307 581 426 211 107 436 176 680 209 137 19 399 19 542 1z"/>
<path d="M2451 3894 c-76 -20 -141 -58 -194 -112 -55 -58 -1251 -1942 -1285
-2025 -29 -72 -32 -178 -7 -251 64 -188 283 -318 480 -286 79 13 170 59 222
112 23 24 231 342 462 708 232 366 425 666 429 667 4 2 198 -293 432 -655 233
-361 447 -681 474 -710 73 -78 157 -116 265 -121 190 -8 352 86 430 249 22 47
26 68 26 150 0 81 -4 103 -26 150 -43 91 -1257 1961 -1306 2012 -104 107 -260
150 -402 112z m189 -244 c21 -11 50 -34 63 -52 81 -108 1242 -1919 1250 -1949
14 -56 -18 -120 -79 -158 -87 -56 -186 -51 -241 12 -15 17 -259 390 -542 827
-283 437 -519 801 -525 808 -9 9 -130 -175 -531 -809 -332 -524 -532 -830
-552 -846 -115 -89 -322 24 -300 163 5 31 1192 1919 1239 1971 50 54 147 69
218 33z"/>
<path d="M2210 1713 c-51 -47 -50 -85 6 -170 l47 -72 118 0 c138 1 134 -16 34
140 -35 53 -74 104 -86 113 -36 25 -84 20 -119 -11z"/>
<path d="M2802 1728 c-12 -6 -51 -57 -86 -112 -99 -159 -103 -142 32 -144
l117 -2 45 72 c61 99 58 148 -11 184 -33 16 -65 17 -97 2z"/>
</g>
</svg>
