<!DOCTYPE svg PUBLIC "-//W3C//DTD SVG 20010904//EN" "http://www.w3.org/TR/2001/REC-SVG-20010904/DTD/svg10.dtd">
<svg version="1.0" xmlns="http://www.w3.org/2000/svg" width="512px" height="512px" viewBox="0 0 5120 5120" preserveAspectRatio="xMidYMid meet">
<g id="layer101" fill="#010101" stroke="none">
 <path d="M2370 4939 c-311 -27 -664 -131 -925 -274 -702 -382 -1167 -1080 -1246 -1870 -16 -162 -7 -455 20 -610 66 -387 212 -728 447 -1045 99 -134 338 -373 474 -474 495 -368 1099 -532 1702 -461 529 62 1025 302 1403 680 603 601 836 1456 624 2282 -37 144 -86 277 -158 428 -344 719 -1032 1219 -1826 1330 -133 19 -385 26 -515 14z"/>
 </g>
<g id="layer102" fill="#fe4a01" stroke="none">
 <path d="M2425 4703 c-297 -25 -540 -91 -790 -213 -625 -305 -1052 -873 -1178 -1565 -32 -176 -32 -535 1 -714 41 -230 110 -434 212 -628 113 -215 231 -373 411 -549 339 -330 754 -529 1229 -589 161 -21 448 -16 600 10 343 57 665 196 945 405 382 287 669 718 785 1180 164 654 17 1338 -400 1860 -78 98 -245 265 -340 341 -405 324 -979 504 -1475 462z m-910 -820 c59 -20 115 -57 157 -100 20 -21 226 -337 457 -703 232 -366 425 -666 429 -667 4 -2 198 293 432 655 233 361 447 681 474 710 73 78 157 116 265 121 190 8 352 -86 430 -249 22 -47 26 -68 26 -150 0 -81 -4 -103 -26 -150 -44 -93 -1257 -1961 -1307 -2013 -56 -58 -144 -103 -230 -119 -124 -23 -273 26 -363 119 -57 59 -1252 1941 -1287 2026 -42 103 -28 240 33 336 59 94 191 181 305 200 64 11 148 4 205 -16z"/>
 <path d="M1312 3657 c-84 -32 -139 -107 -129 -178 7 -51 1216 -1959 1265 -1997 73 -56 198 -36 255 40 82 110 1242 1919 1250 1949 34 138 -189 258 -303 163 -16 -14 -264 -388 -551 -832 -287 -444 -527 -813 -533 -820 -9 -9 -130 175 -531 809 -344 542 -531 830 -553 847 -39 30 -118 39 -170 19z"/>
 </g>
<g id="layer103" fill="#fe9e01" stroke="none">
 <path d="M2425 4703 c-297 -25 -540 -91 -790 -213 -625 -305 -1052 -873 -1178 -1565 -32 -176 -32 -535 1 -714 41 -230 110 -434 212 -628 113 -215 231 -373 411 -549 339 -330 754 -529 1229 -589 161 -21 448 -16 600 10 343 57 665 196 945 405 382 287 669 718 785 1180 164 654 17 1338 -400 1860 -78 98 -245 265 -340 341 -405 324 -979 504 -1475 462z m-910 -820 c59 -20 115 -57 157 -100 20 -21 226 -337 457 -703 232 -366 425 -666 429 -667 4 -2 198 293 432 655 233 361 447 681 474 710 73 78 157 116 265 121 190 8 352 -86 430 -249 22 -47 26 -68 26 -150 0 -81 -4 -103 -26 -150 -44 -93 -1257 -1961 -1307 -2013 -56 -58 -144 -103 -230 -119 -124 -23 -273 26 -363 119 -57 59 -1252 1941 -1287 2026 -42 103 -28 240 33 336 59 94 191 181 305 200 64 11 148 4 205 -16z m1022 -177 c6 -6 -170 -272 -198 -298 -58 -55 -153 -19 -165 62 -4 30 3 48 60 135 57 88 69 101 98 105 34 5 199 2 205 -4z m299 -13 c8 -10 39 -59 70 -110 46 -76 55 -97 49 -120 -15 -63 -85 -98 -145 -73 -29 12 -43 31 -180 250 l-47 75 120 -2 c101 -2 122 -5 133 -20z"/>
 <path d="M1312 3657 c-84 -32 -139 -107 -129 -178 7 -51 1216 -1959 1265 -1997 73 -56 198 -36 255 40 82 110 1242 1919 1250 1949 34 138 -189 258 -303 163 -16 -14 -264 -388 -551 -832 -287 -444 -527 -813 -533 -820 -9 -9 -130 175 -531 809 -344 542 -531 830 -553 847 -39 30 -118 39 -170 19z"/>
 </g>
<g id="layer104" fill="#fed201" stroke="none">
 <path d="M2425 4703 c-297 -25 -540 -91 -790 -213 -625 -305 -1052 -873 -1178 -1565 -32 -176 -32 -535 1 -714 41 -230 110 -434 212 -628 113 -215 231 -373 411 -549 339 -330 754 -529 1229 -589 161 -21 448 -16 600 10 343 57 665 196 945 405 382 287 669 718 785 1180 164 654 17 1338 -400 1860 -78 98 -245 265 -340 341 -405 324 -979 504 -1475 462z m-910 -820 c59 -20 115 -57 157 -100 20 -21 226 -337 457 -703 232 -366 425 -666 429 -667 4 -2 198 293 432 655 233 361 447 681 474 710 73 78 157 116 265 121 190 8 352 -86 430 -249 22 -47 26 -68 26 -150 0 -81 -4 -103 -26 -150 -44 -93 -1257 -1961 -1307 -2013 -56 -58 -144 -103 -230 -119 -124 -23 -273 26 -363 119 -57 59 -1252 1941 -1287 2026 -42 103 -28 240 33 336 59 94 191 181 305 200 64 11 148 4 205 -16z m1221 -30 c196 -306 225 -359 220 -387 -8 -41 -42 -74 -83 -82 -64 -12 -85 7 -184 165 -51 80 -99 154 -108 164 -14 17 -15 17 -31 0 -9 -10 -57 -80 -105 -156 -49 -76 -100 -147 -113 -158 -60 -47 -155 0 -156 77 -1 33 16 66 114 216 l115 178 160 0 c142 0 161 -2 171 -17z"/>
 <path d="M1312 3657 c-84 -32 -139 -107 -129 -178 7 -51 1216 -1959 1265 -1997 73 -56 198 -36 255 40 82 110 1242 1919 1250 1949 34 138 -189 258 -303 163 -16 -14 -264 -388 -551 -832 -287 -444 -527 -813 -533 -820 -9 -9 -130 175 -531 809 -344 542 -531 830 -553 847 -39 30 -118 39 -170 19z"/>
 </g>
<g id="layer105" fill="#ffffff" stroke="none">
 <path d="M2425 4703 c-297 -25 -540 -91 -790 -213 -625 -305 -1052 -873 -1178 -1565 -32 -176 -32 -535 1 -714 41 -230 110 -434 212 -628 113 -215 231 -373 411 -549 339 -330 754 -529 1229 -589 161 -21 448 -16 600 10 343 57 665 196 945 405 382 287 669 718 785 1180 164 654 17 1338 -400 1860 -78 98 -245 265 -340 341 -405 324 -979 504 -1475 462z m209 -705 c27 -27 272 -403 315 -486 26 -48 -15 -117 -76 -128 -64 -12 -85 7 -184 165 -51 80 -99 154 -108 164 -14 17 -15 17 -31 0 -9 -10 -57 -80 -105 -156 -49 -76 -100 -147 -113 -158 -56 -44 -147 -3 -158 71 -5 32 9 56 146 270 83 129 165 247 181 263 42 39 89 37 133 -5z m-1119 -115 c59 -20 115 -57 157 -100 20 -21 226 -337 457 -703 232 -366 425 -666 429 -667 4 -2 198 293 432 655 233 361 447 681 474 710 73 78 157 116 265 121 190 8 352 -86 430 -249 22 -47 26 -68 26 -150 0 -81 -4 -103 -26 -150 -44 -93 -1257 -1961 -1307 -2013 -56 -58 -144 -103 -230 -119 -124 -23 -273 26 -363 119 -57 59 -1252 1941 -1287 2026 -42 103 -28 240 33 336 59 94 191 181 305 200 64 11 148 4 205 -16z"/>
 <path d="M1312 3657 c-84 -32 -139 -107 -129 -178 7 -51 1216 -1959 1265 -1997 73 -56 198 -36 255 40 82 110 1242 1919 1250 1949 34 138 -189 258 -303 163 -16 -14 -264 -388 -551 -832 -287 -444 -527 -813 -533 -820 -9 -9 -130 175 -531 809 -344 542 -531 830 -553 847 -39 30 -118 39 -170 19z"/>
 </g>

</svg>